<?xml version="1.0" encoding="UTF-8" standalone="no"?>
<!-- Created with Inkscape (http://www.inkscape.org/) -->

<svg
   xmlns:dc="http://purl.org/dc/elements/1.1/"
   xmlns:cc="http://creativecommons.org/ns#"
   xmlns:rdf="http://www.w3.org/1999/02/22-rdf-syntax-ns#"
   xmlns:svg="http://www.w3.org/2000/svg"
   xmlns="http://www.w3.org/2000/svg"
   xmlns:sodipodi="http://sodipodi.sourceforge.net/DTD/sodipodi-0.dtd"
   xmlns:inkscape="http://www.inkscape.org/namespaces/inkscape"
   width="29.635319mm"
   height="6.6092019mm"
   viewBox="0 0 29.635318 6.6092019"
   version="1.1"
   id="svg8"
   sodipodi:docname="logo.svg"
   inkscape:version="0.92.3 (2405546, 2018-03-11)">
  <defs
     id="defs2" />
  <sodipodi:namedview
     id="base"
     pagecolor="#ffffff"
     bordercolor="#666666"
     borderopacity="1.0"
     inkscape:pageopacity="0.0"
     inkscape:pageshadow="2"
     inkscape:zoom="1.4"
     inkscape:cx="48.472414"
     inkscape:cy="-45.16828"
     inkscape:document-units="mm"
     inkscape:current-layer="layer1"
     showgrid="false"
     inkscape:window-width="1920"
     inkscape:window-height="1007"
     inkscape:window-x="0"
     inkscape:window-y="39"
     inkscape:window-maximized="1" />
  <metadata
     id="metadata5">
    <rdf:RDF>
      <cc:Work
         rdf:about="">
        <dc:format>image/svg+xml</dc:format>
        <dc:type
           rdf:resource="http://purl.org/dc/dcmitype/StillImage" />
        <dc:title></dc:title>
      </cc:Work>
    </rdf:RDF>
  </metadata>
  <g
     inkscape:label="Layer 1"
     inkscape:groupmode="layer"
     id="layer1"
     transform="translate(-67.060536,-75.972045)">
    <g
       aria-label="fratilia"
       style="font-style:normal;font-variant:normal;font-weight:bold;font-stretch:normal;font-size:14.70647526px;line-height:1.25;font-family:'Work Sans';-inkscape-font-specification:'Work Sans, Bold';font-variant-ligatures:normal;font-variant-caps:normal;font-variant-numeric:normal;font-feature-settings:normal;text-align:start;letter-spacing:0px;word-spacing:0px;writing-mode:lr-tb;text-anchor:start;fill:#00e4ff;fill-opacity:1;stroke:none;stroke-width:0.36766189"
       id="text817"
       transform="matrix(0.61060783,0,0,0.61060783,31.882728,30.869705)">
      <path
         d="m 61.714237,73.864664 q 0.602966,0 1.058866,0.132358 0.455901,0.117652 0.676498,0.279423 l -0.25001,1.558887 q -0.161771,-0.102946 -0.367662,-0.161772 -0.20589,-0.05883 -0.514726,-0.05883 -0.514727,0 -0.852976,0.235304 -0.323542,0.235304 -0.323542,0.823563 v 0.955921 l 0.147064,0.411781 v 6.500262 h -2.5001 v -8.029736 q 0,-0.70591 0.220597,-1.205931 0.235303,-0.50002 0.647085,-0.823562 0.411781,-0.323543 0.941214,-0.470607 0.529433,-0.147065 1.117692,-0.147065 z m 1.661832,3.323663 v 1.779484 h -5.764938 v -1.779484 z"
         style="font-style:normal;font-variant:normal;font-weight:bold;font-stretch:normal;font-size:14.70647526px;font-family:'Work Sans';-inkscape-font-specification:'Work Sans, Bold';font-variant-ligatures:normal;font-variant-caps:normal;font-variant-numeric:normal;font-feature-settings:normal;text-align:start;writing-mode:lr-tb;text-anchor:start;fill:#00e4ff;fill-opacity:1;stroke-width:0.36766189"
         id="path819"
         inkscape:connector-curvature="0" />
      <path
         d="M 64.377028,84.541565 V 77.188327 H 66.583 l 0.102945,1.5883 q 0.279423,-0.823563 0.823562,-1.279464 0.558847,-0.4559 1.411822,-0.4559 0.279423,0 0.470607,0.04412 0.205891,0.04412 0.323543,0.117652 l -0.25001,2.058906 q -0.147065,-0.05883 -0.382369,-0.08824 -0.220597,-0.04412 -0.544139,-0.04412 -0.441195,0 -0.823563,0.191184 -0.382368,0.191184 -0.617672,0.573553 -0.220597,0.367662 -0.220597,0.941214 v 3.706032 z"
         style="font-style:normal;font-variant:normal;font-weight:bold;font-stretch:normal;font-size:14.70647526px;font-family:'Work Sans';-inkscape-font-specification:'Work Sans, Bold';font-variant-ligatures:normal;font-variant-caps:normal;font-variant-numeric:normal;font-feature-settings:normal;text-align:start;writing-mode:lr-tb;text-anchor:start;fill:#00e4ff;fill-opacity:1;stroke-width:0.36766189"
         id="path821"
         inkscape:connector-curvature="0" />
      <path
         d="m 74.713153,79.879612 q 0,-0.514726 -0.294129,-0.808856 -0.279423,-0.308836 -0.764737,-0.308836 -0.485314,0 -0.838269,0.25001 -0.338249,0.235304 -0.470607,0.852976 l -2.117733,-0.50002 q 0.205891,-1.058867 1.088279,-1.691245 0.882389,-0.632378 2.485395,-0.632378 1.073572,0 1.823603,0.323542 0.764736,0.308836 1.161811,0.941214 0.411782,0.617672 0.411782,1.529474 v 2.691285 q 0,0.573552 0.514726,0.573552 0.264717,0 0.426488,-0.05883 l -0.147065,1.426529 q -0.441194,0.20589 -1.073572,0.20589 -0.573553,0 -1.014747,-0.176477 -0.441195,-0.191185 -0.691205,-0.558847 -0.25001,-0.382368 -0.25001,-0.95592 v -0.08824 l 0.279423,-0.102946 q 0,0.632379 -0.382368,1.058867 -0.367662,0.426487 -0.970627,0.632378 -0.588259,0.205891 -1.235344,0.205891 -0.750031,0 -1.308877,-0.235304 -0.558846,-0.235304 -0.867682,-0.676498 -0.294129,-0.455901 -0.294129,-1.117692 0,-0.79415 0.470607,-1.308876 0.485314,-0.529433 1.514767,-0.735324 l 2.779524,-0.573552 -0.01471,1.323582 -1.411821,0.29413 q -0.441195,0.08824 -0.661792,0.264716 -0.20589,0.161772 -0.20589,0.500021 0,0.323542 0.235303,0.485313 0.235304,0.161771 0.558846,0.161771 0.25001,0 0.470608,-0.07353 0.235303,-0.07353 0.411781,-0.220597 0.176478,-0.161771 0.279423,-0.397075 0.102945,-0.235304 0.102945,-0.558846 z"
         style="font-style:normal;font-variant:normal;font-weight:bold;font-stretch:normal;font-size:14.70647526px;font-family:'Work Sans';-inkscape-font-specification:'Work Sans, Bold';font-variant-ligatures:normal;font-variant-caps:normal;font-variant-numeric:normal;font-feature-settings:normal;text-align:start;writing-mode:lr-tb;text-anchor:start;fill:#00e4ff;fill-opacity:1;stroke-width:0.36766189"
         id="path823"
         inkscape:connector-curvature="0" />
      <path
         d="m 81.898645,74.849998 v 7.073814 q 0,0.529433 0.25001,0.764737 0.264716,0.220597 0.720617,0.220597 0.352956,0 0.602966,-0.07353 0.264716,-0.08824 0.470607,-0.25001 l 0.264716,1.54418 q -0.367661,0.264716 -0.926508,0.411781 -0.558846,0.147065 -1.147105,0.147065 -0.838269,0 -1.455941,-0.235304 -0.602965,-0.235304 -0.941214,-0.75003 -0.323542,-0.514727 -0.338249,-1.367702 v -6.794392 z m 2.191265,2.338329 v 1.779484 h -5.956123 v -1.779484 z"
         style="font-style:normal;font-variant:normal;font-weight:bold;font-stretch:normal;font-size:14.70647526px;font-family:'Work Sans';-inkscape-font-specification:'Work Sans, Bold';font-variant-ligatures:normal;font-variant-caps:normal;font-variant-numeric:normal;font-feature-settings:normal;text-align:start;writing-mode:lr-tb;text-anchor:start;fill:#00e4ff;fill-opacity:1;stroke-width:0.36766189"
         id="path825"
         inkscape:connector-curvature="0" />
      <path
         d="m 86.509124,76.335352 q -0.764737,0 -1.117692,-0.279423 -0.338249,-0.29413 -0.338249,-0.911802 0,-0.632378 0.338249,-0.911801 0.352955,-0.29413 1.117692,-0.29413 0.75003,0 1.102986,0.29413 0.352955,0.279423 0.352955,0.911801 0,0.617672 -0.352955,0.911802 -0.352956,0.279423 -1.102986,0.279423 z m 1.25005,0.852975 v 7.353238 h -2.5001 v -7.353238 z"
         style="font-style:normal;font-variant:normal;font-weight:bold;font-stretch:normal;font-size:14.70647526px;font-family:'Work Sans';-inkscape-font-specification:'Work Sans, Bold';font-variant-ligatures:normal;font-variant-caps:normal;font-variant-numeric:normal;font-feature-settings:normal;text-align:start;writing-mode:lr-tb;text-anchor:start;fill:#00e4ff;fill-opacity:1;stroke-width:0.36766189"
         id="path827"
         inkscape:connector-curvature="0" />
      <path
         d="m 92.009575,74.070555 v 7.970909 q 0,0.485314 0.161771,0.691204 0.161772,0.205891 0.54414,0.205891 0.220597,0 0.367662,-0.02941 0.147065,-0.02941 0.352955,-0.08824 l -0.161771,1.500061 q -0.264717,0.161771 -0.691204,0.264716 -0.426488,0.102946 -0.838269,0.102946 -1.176518,0 -1.705952,-0.54414 -0.529433,-0.544139 -0.529433,-1.779483 v -8.294452 z"
         style="font-style:normal;font-variant:normal;font-weight:bold;font-stretch:normal;font-size:14.70647526px;font-family:'Work Sans';-inkscape-font-specification:'Work Sans, Bold';font-variant-ligatures:normal;font-variant-caps:normal;font-variant-numeric:normal;font-feature-settings:normal;text-align:start;writing-mode:lr-tb;text-anchor:start;fill:#00e4ff;fill-opacity:1;stroke-width:0.36766189"
         id="path829"
         inkscape:connector-curvature="0" />
      <path
         d="m 95.585778,76.335352 q -0.764736,0 -1.117692,-0.279423 -0.338249,-0.29413 -0.338249,-0.911802 0,-0.632378 0.338249,-0.911801 0.352956,-0.29413 1.117692,-0.29413 0.750031,0 1.102986,0.29413 0.352955,0.279423 0.352955,0.911801 0,0.617672 -0.352955,0.911802 -0.352955,0.279423 -1.102986,0.279423 z m 1.250051,0.852975 v 7.353238 h -2.500101 v -7.353238 z"
         style="font-style:normal;font-variant:normal;font-weight:bold;font-stretch:normal;font-size:14.70647526px;font-family:'Work Sans';-inkscape-font-specification:'Work Sans, Bold';font-variant-ligatures:normal;font-variant-caps:normal;font-variant-numeric:normal;font-feature-settings:normal;text-align:start;writing-mode:lr-tb;text-anchor:start;fill:#00e4ff;fill-opacity:1;stroke-width:0.36766189"
         id="path831"
         inkscape:connector-curvature="0" />
      <path
         d="m 102.71865,79.879612 q 0,-0.514726 -0.29413,-0.808856 -0.27943,-0.308836 -0.76474,-0.308836 -0.48531,0 -0.83827,0.25001 -0.33825,0.235304 -0.47061,0.852976 l -2.117729,-0.50002 q 0.205891,-1.058867 1.08828,-1.691245 0.882389,-0.632378 2.485389,-0.632378 1.07358,0 1.82361,0.323542 0.76473,0.308836 1.16181,0.941214 0.41178,0.617672 0.41178,1.529474 v 2.691285 q 0,0.573552 0.51473,0.573552 0.26471,0 0.42649,-0.05883 l -0.14707,1.426529 q -0.44119,0.20589 -1.07357,0.20589 -0.57355,0 -1.01475,-0.176477 -0.44119,-0.191185 -0.6912,-0.558847 -0.25001,-0.382368 -0.25001,-0.95592 v -0.08824 l 0.27942,-0.102946 q 0,0.632379 -0.38237,1.058867 -0.36766,0.426487 -0.97063,0.632378 -0.58826,0.205891 -1.23534,0.205891 -0.75003,0 -1.308876,-0.235304 -0.558846,-0.235304 -0.867682,-0.676498 -0.29413,-0.455901 -0.29413,-1.117692 0,-0.79415 0.470607,-1.308876 0.485314,-0.529433 1.514771,-0.735324 l 2.77952,-0.573552 -0.0147,1.323582 -1.41182,0.29413 q -0.44119,0.08824 -0.66179,0.264716 -0.20589,0.161772 -0.20589,0.500021 0,0.323542 0.2353,0.485313 0.23531,0.161771 0.55885,0.161771 0.25001,0 0.47061,-0.07353 0.2353,-0.07353 0.41178,-0.220597 0.17648,-0.161771 0.27942,-0.397075 0.10295,-0.235304 0.10295,-0.558846 z"
         style="font-style:normal;font-variant:normal;font-weight:bold;font-stretch:normal;font-size:14.70647526px;font-family:'Work Sans';-inkscape-font-specification:'Work Sans, Bold';font-variant-ligatures:normal;font-variant-caps:normal;font-variant-numeric:normal;font-feature-settings:normal;text-align:start;writing-mode:lr-tb;text-anchor:start;fill:#00e4ff;fill-opacity:1;stroke-width:0.36766189"
         id="path833"
         inkscape:connector-curvature="0" />
    </g>
  </g>
</svg>
